Coordinates
version=1
nRows=19
nColumns=34
inDegrees=yes

Units are S.I. units (second, meters, Newtons, ...)
If the header above contains a line with 'inDegrees', this indicates whether rotational values are in degrees (yes) or radians (no).

endheader
time	pelvis_tilt	pelvis_list	pelvis_rotation	pelvis_tx	pelvis_ty	pelvis_tz	hip_flexion_r	hip_adduction_r	hip_rotation_r	knee_angle_r	ankle_angle_r	subtalar_angle_r	mtp_angle_r	hip_flexion_l	hip_adduction_l	hip_rotation_l	knee_angle_l	ankle_angle_l	subtalar_angle_l	mtp_angle_l	lumbar_extension	lumbar_bending	lumbar_rotation	arm_flex_r	arm_add_r	arm_rot_r	elbow_flex_r	pro_sup_r	arm_flex_l	arm_add_l	arm_rot_l	elbow_flex_l	pro_sup_l
      2.50000000	      3.10701017	     -7.77847433	    -16.31754517	      2.12450311	      1.01387419	      0.42936386	      5.63638029	      1.84014463	     -1.92005314	     11.70713344	      5.29173788	      3.77204749	      0.00000000	     10.40353106	     -6.53568740	     -0.29401821	     13.26074782	      2.28189924	     -2.21749457	      0.00000000	    -12.38469371	      0.52251346	     -1.85904561	     19.28764462	    -16.46792667	     21.67305548	     43.03876728	    119.74817918	      9.68523058	    -18.18115260	      8.80022592	     18.04526403	    119.70305105
      2.51666670	      3.35158490	     -7.41045176	    -16.26547285	      2.12490068	      1.01409798	      0.42857713	      5.68376907	      1.35712375	     -1.73146829	     12.10111866	      5.52909570	      3.34310308	      0.00000000	     10.11194470	     -5.97345269	     -0.16318353	     12.98943554	      2.43727419	     -2.12238386	      0.00000000	    -12.57137619	     -0.11863366	     -1.89237996	     19.22614409	    -16.23656423	     21.83398931	     43.25141389	    119.74817918	      9.74966480	    -18.34219932	      8.55621661	     18.15434899	    119.74817918
      2.53333330	      3.54305307	     -7.15025760	    -16.25001760	      2.12561501	      1.01428711	      0.42779580	      5.85218474	      0.99449912	     -1.65134382	     12.73361464	      5.71412691	      2.91028352	      0.00000000	      9.77776109	     -5.50755845	      0.10157591	     12.69072430	      2.99866789	     -2.20603914	      0.00000000	    -12.73412230	     -0.59275711	     -1.85144069	     19.13224203	    -16.00895534	     21.95256666	     43.11332088	    119.74817918	      9.78045068	    -18.46091117	      8.40449799	     18.17094371	    119.74817918
      2.55000000	      3.78236062	     -6.65797762	    -16.25646218	      2.12597574	      1.01439458	      0.42657348	      6.31290963	      0.35126241	     -1.37142684	     13.82290659	      6.13016847	      2.30229663	      0.00000000	      9.50013927	     -4.74361526	      0.46534584	     12.40128111	      3.52413235	     -2.45915998	      0.00000000	    -12.97337271	     -1.29256906	     -1.89370868	     19.28373621	    -15.71149559	     22.07967443	     42.51741462	    119.74817918	      9.97823443	    -18.64738441	      8.24466061	     18.14576679	    119.74817918
      2.56666670	      3.93016199	     -6.16149410	    -16.47775752	      2.12642194	      1.01427032	      0.42550891	      7.05023689	     -0.28758373	     -1.28797140	     15.22133801	      6.45132968	      1.80078918	      0.00000000	      9.46113133	     -3.98714441	      0.98581970	     12.50519721	      4.23185627	     -3.07930858	      0.00000000	    -13.08467384	     -2.00094279	     -1.76615357	     19.51335503	    -15.33513262	     22.29243109	     41.57438534	    119.74817918	     10.18569358	    -18.87558654	      8.19529580	     18.01734976	    119.74817918
      2.58333330	      3.95335153	     -5.63748172	    -16.68821172	      2.12667350	      1.01386280	      0.42363776	      8.10220077	     -0.99774079	     -1.30931300	     16.86021399	      6.66083851	      1.45055224	      0.00000000	      9.70601495	     -3.12973750	      1.76772334	     12.77367887	      4.80068654	     -4.12405998	      0.00000000	    -13.08817084	     -2.61993228	     -1.62188573	     19.78524293	    -15.10779204	     22.70590311	     40.39512672	    119.74817918	     10.46556944	    -19.02888831	      8.39490659	     18.08036322	    119.74817918
      2.60000000	      4.16825955	     -5.69876719	    -16.71109131	      2.12744059	      1.01388770	      0.42159903	      8.44867055	     -1.16416563	     -1.58549477	     17.99113137	      6.65168064	      1.02375018	      0.00000000	      9.58002182	     -2.93457872	      1.92467183	     13.04967100	      5.03934009	     -4.28332350	      0.00000000	    -13.51991219	     -2.58729039	     -1.34016800	     19.79663860	    -15.19059494	     22.76860979	     39.68466801	    119.74817918	     10.85032244	    -18.98870482	      8.45674099	     18.24745793	    119.74817918
      2.61666670	      4.09675401	     -5.10559686	    -16.97701355	      2.12817801	      1.01294422	      0.41982213	      9.59612547	     -1.87749451	     -1.33324215	     19.61030302	      6.88389571	      0.48321168	      0.00000000	      9.88843683	     -2.18829707	      1.77123403	     13.23098335	      4.93685489	     -4.68201658	      0.00000000	    -13.33781738	     -3.15104768	     -1.36234282	     20.33217123	    -14.68766602	     23.30697501	     37.69858827	    119.74817918	     11.02800208	    -19.17182111	      8.84920099	     17.86255836	    119.74817918
      2.63333330	      4.01016424	     -4.73445827	    -17.43222811	      2.12860426	      1.01192497	      0.41787687	     10.71248111	     -2.37082012	     -1.19842559	     21.14402895	      6.97338741	     -0.03064797	      0.00000000	     10.17383383	     -1.67159855	      1.53294794	     13.47803743	      5.00099357	     -5.18708653	      0.00000000	    -13.24733237	     -3.40650893	     -0.88058081	     20.82651546	    -14.65602628	     24.02321221	     35.87740352	    119.74817918	     11.41373295	    -19.18221918	      9.32819070	     17.85812043	    119.74817918
      2.65000000	      3.87998681	     -4.32846480	    -17.84883166	      2.12810302	      1.01075426	      0.41595021	     11.84967321	     -2.80174998	     -1.00993430	     22.51104600	      6.97840422	     -0.71335853	      0.00000000	     10.49533479	     -1.18442416	      1.23751697	     13.53015248	      4.92238620	     -5.58756667	      0.00000000	    -13.19593978	     -3.73030430	     -0.33907994	     21.48059602	    -14.53882424	     24.76808397	     33.80210434	    119.74817918	     12.13318028	    -19.27134892	      9.83642073	     17.82445826	    119.74817918
      2.66666670	      3.79824785	     -3.91678467	    -18.34600557	      2.12789301	      1.00983574	      0.41394920	     12.88930472	     -3.26610501	     -0.87884880	     23.79295194	      6.73104690	     -1.51875636	      0.00000000	     10.72172725	     -0.66762472	      0.88413998	     13.52175782	      4.89917282	     -5.95174627	      0.00000000	    -13.13466176	     -4.03291107	      0.19807330	     22.10950518	    -14.44214673	     25.25424687	     31.73171884	    119.74817918	     12.73964666	    -19.28120553	     10.22257490	     17.74999853	    119.74817918
      2.68333330	      3.57719127	     -3.51599933	    -18.96091798	      2.12770662	      1.00886512	      0.41264934	     14.04378194	     -3.61425175	     -0.84062075	     25.02457866	      6.41848145	     -2.27703886	      0.00000000	     10.99877067	     -0.28556009	      0.45986078	     13.38071257	      4.73677305	     -6.33543729	      0.00000000	    -12.87730077	     -4.34049157	      0.99085239	     22.52285320	    -14.30593054	     25.78700787	     29.46146852	    119.74817918	     13.27778921	    -19.29595265	     10.57097562	     17.74718157	    119.74817918
      2.70000000	      3.32715403	     -3.17971658	    -19.50359837	      2.12711546	      1.00813605	      0.41067982	     15.16514839	     -3.88464117	     -0.87263511	     26.16709006	      6.04620723	     -2.64201517	      0.00000000	     11.25421362	      0.06331448	      0.10635971	     13.05875675	      4.55128563	     -6.59405894	      0.00000000	    -12.66597300	     -4.44665735	      1.78918939	     22.97274222	    -14.35471250	     26.12220592	     27.29664075	    119.74817918	     13.92197131	    -19.17318881	     10.78905232	     17.84876298	    119.74817918
      2.71666670	      3.09958550	     -3.05485959	    -20.01668883	      2.12650484	      1.00762410	      0.40926446	     16.24072543	     -3.69231366	     -0.25407603	     27.76759482	      7.65738464	     -2.10142376	      0.00000000	     11.47409514	      0.15606550	     -0.20060965	     12.90546736	      4.49624944	     -6.83646361	      0.00000000	    -12.55548400	     -4.36212305	      2.65129661	     23.33095656	    -14.34893401	     26.29306413	     25.21518799	    119.74817918	     14.56502036	    -19.13875291	     10.88300302	     18.11786395	    119.74817918
      2.73333330	      2.83300301	     -2.78834604	    -20.49609347	      2.12589787	      1.00710487	      0.40759473	     17.32396949	     -3.78043434	     -0.29730457	     29.17460229	      9.30709073	     -1.17268150	      0.00000000	     11.72415210	      0.39000169	     -0.61776207	     12.58691397	      4.23687499	     -6.94696045	      0.00000000	    -12.37706848	     -4.37727937	      3.52811022	     23.58239223	    -14.44729384	     26.25218473	     23.23269787	    119.74817918	     15.23459838	    -19.03632411	     10.84373133	     18.54768756	    119.74817918
      2.75000000	      2.66877147	     -2.69128052	    -20.90952352	      2.12596435	      1.00683827	      0.40567582	     17.91140634	     -3.79854546	     -0.59738039	     30.01011855	     10.48110699	     -0.63255863	      0.00000000	     11.83173994	      0.51868929	     -0.94751740	     12.41083731	      4.28554190	     -7.08098854	      0.00000000	    -12.30499063	     -4.16678002	      4.27006562	     23.81291022	    -14.63894170	     25.83883441	     21.47175044	    119.74817918	     15.77129009	    -18.88506645	     10.80843356	     19.08020901	    119.74817918
      2.76666670	      2.36620201	     -2.62296009	    -21.23223680	      2.12558191	      1.00677408	      0.40363898	     18.54571526	     -3.74101326	     -1.05093949	     30.54270063	     10.70980375	     -0.30527468	      0.00000000	     11.86333430	      0.59155615	     -1.09477010	     11.74365098	      4.07656037	     -7.09298966	      0.00000000	    -12.25150957	     -3.90525438	      5.04662603	     23.86926929	    -14.94995883	     25.36342141	     20.01642580	    119.74817918	     16.39696426	    -18.79529983	     10.80739588	     19.94649407	    119.74817918
      2.78333330	      2.21520168	     -2.60772364	    -21.35009541	      2.12541665	      1.00678322	      0.40154720	     18.82814774	     -3.68804809	     -1.42760857	     30.81858546	     10.70594685	     -0.32923627	      0.00000000	     11.92401065	      0.67668340	     -1.09077080	     11.44193210	      3.85486553	     -7.00439499	      0.00000000	    -12.35436434	     -3.63127724	      5.65194522	     23.68304788	    -15.42748238	     25.11695598	     19.15728887	    119.74817918	     17.05747174	    -18.73723420	     10.79638105	     20.75471785	    119.74817918
      2.80000000	      2.01667875	     -2.30077003	    -21.76202054	      2.12541627	      1.00646635	      0.40011647	     19.31015402	     -3.86446982	     -1.57737175	     31.06842718	     10.33946643	     -0.01394673	      0.00000000	     12.00977907	      0.97911745	     -1.37927488	     10.96156710	      3.49611959	     -7.32736163	      0.00000000	    -12.13493607	     -3.63581512	      6.20717932	     23.63574141	    -15.39944599	     23.77185923	     17.74260124	    119.74817918	     17.09615862	    -19.02165081	     10.74733579	     22.41277458	    119.74817918
